<svg width="26" height="25" viewBox="0 0 26 25" fill="none" xmlns="http://www.w3.org/2000/svg">
<g clip-path="url(#clip0_77_400)">
<path fill-rule="evenodd" clip-rule="evenodd" d="M9.72793 6.29365C10.0045 6.26474 10.2851 6.24994 10.569 6.24994C14.3664 6.24994 17.5673 8.89819 18.5477 12.5108C18.6261 12.5057 18.7051 12.5024 18.7845 12.5009C18.7522 12.5003 18.7199 12.5 18.6875 12.5L18.6613 12.5001L18.6612 12.4999H19.8593H19.9064V12.4995C21.3948 12.4744 22.5937 11.26 22.5937 9.76556C22.5937 8.25541 21.3695 7.03119 19.8593 7.03119C19.3523 7.03119 18.8775 7.1692 18.4704 7.40971C18.4692 6.9732 18.4029 6.55199 18.2807 6.15529C17.672 4.39171 15.9974 3.12494 14.027 3.12494C12.0053 3.12494 10.2952 4.45834 9.72793 6.29365ZM21.9505 13.5201C23.286 14.5123 24.1563 16.1351 24.1563 17.9687C24.1563 20.989 21.795 23.4374 18.8823 23.4374C18.8171 23.4374 18.7521 23.4362 18.6875 23.4338V23.4374H10.6931V23.4365C10.6518 23.4371 10.6104 23.4374 10.569 23.4374C5.99179 23.4374 2.28125 19.5899 2.28125 14.8437C2.28125 11.0111 4.70073 7.76455 8.04228 6.65663C8.5054 3.76874 11.0085 1.56244 14.027 1.56244C16.6167 1.56244 18.8271 3.18653 19.6952 5.47177C19.7497 5.46972 19.8044 5.46869 19.8593 5.46869C22.2324 5.46869 24.1562 7.39247 24.1562 9.76556C24.1562 11.3795 23.2664 12.7857 21.9505 13.5201ZM18.6875 21.8749H10.6931H10.6031V21.8748L10.569 21.8749C6.90765 21.8749 3.84375 18.7808 3.84375 14.8437C3.84375 10.9066 6.90765 7.81244 10.569 7.81244C13.6749 7.81244 16.3509 10.039 17.0913 13.118L17.0937 13.1171C17.1982 13.5443 17.2649 13.9872 17.2897 14.4417C17.7765 14.1977 18.3181 14.0624 18.8823 14.0624C20.8791 14.0624 22.5938 15.7574 22.5938 17.9687C22.5938 20.1644 20.9031 21.8511 18.9242 21.8747V21.8749H18.6875Z" fill="white"/>
</g>
<defs>
<clipPath id="clip0_77_400">
<rect width="25" height="25" fill="white" transform="translate(0.71875 -6.10352e-05)"/>
</clipPath>
</defs>
</svg>
