<svg width="30" height="30" viewBox="0 0 30 30" fill="none" xmlns="http://www.w3.org/2000/svg">
<path fill-rule="evenodd" clip-rule="evenodd" d="M21.5625 19.0911C21.5625 21.7323 18.9251 24.375 15 24.375C11.0749 24.375 8.4375 21.7323 8.4375 19.0911C8.4375 16.3515 10.2193 12.9397 12.3136 9.96966C13.2602 8.62724 14.2102 7.4579 14.9531 6.59408C15.7101 7.5254 16.6924 8.79317 17.6712 10.2239C18.6917 11.7157 19.6843 13.3498 20.4156 14.9402C21.1604 16.5598 21.5625 17.9818 21.5625 19.0911ZM6.5625 19.0911C6.5625 13.994 11.373 7.84778 13.7295 5.14278C14.4938 4.26535 15 3.75 15 3.75C15 3.75 15.4849 4.28603 16.2222 5.18395C18.5605 8.03156 23.4375 14.5188 23.4375 19.0911C23.4375 23.0448 19.6599 26.25 15 26.25C10.3401 26.25 6.5625 23.0448 6.5625 19.0911ZM10.7797 15.9375H12.7968C12.4173 16.8037 12.1875 17.6251 12.1875 18.324C12.1875 19.397 13.2372 20.625 15 20.625V22.5C12.4112 22.5 10.3125 20.6303 10.3125 18.324C10.3125 17.5543 10.4916 16.7437 10.7797 15.9375Z" fill="white"/>
</svg>
