<svg width="25" height="25" viewBox="0 0 25 25" fill="none" xmlns="http://www.w3.org/2000/svg">
<g clip-path="url(#clip0_76_336)">
<rect width="25" height="25" transform="matrix(-1 0 0 1 25 0)" fill="#F5FAFF"/>
<path d="M12.5 2.25098C9.16016 2.25098 8.76465 2.26562 7.45117 2.32422C6.23047 2.37793 5.57129 2.58301 5.13184 2.75391C4.55078 2.97852 4.13086 3.25195 3.69629 3.68652C3.25684 4.12598 2.98828 4.54102 2.76367 5.12207C2.59277 5.56152 2.3877 6.22559 2.33398 7.44141C2.27539 8.75977 2.26074 9.15527 2.26074 12.4902C2.26074 15.8301 2.27539 16.2256 2.33398 17.5391C2.3877 18.7598 2.59277 19.4189 2.76367 19.8584C2.98828 20.4395 3.26172 20.8594 3.69629 21.2939C4.13574 21.7334 4.55078 22.002 5.13184 22.2266C5.57129 22.3975 6.23535 22.6025 7.45117 22.6563C8.76953 22.7148 9.16504 22.7295 12.5 22.7295C15.8398 22.7295 16.2354 22.7148 17.5488 22.6563C18.7695 22.6025 19.4287 22.3975 19.8682 22.2266C20.4492 22.002 20.8691 21.7285 21.3037 21.2939C21.7432 20.8545 22.0117 20.4395 22.2363 19.8584C22.4072 19.4189 22.6123 18.7549 22.666 17.5391C22.7246 16.2207 22.7393 15.8252 22.7393 12.4902C22.7393 9.15039 22.7246 8.75488 22.666 7.44141C22.6123 6.2207 22.4072 5.56152 22.2363 5.12207C22.0117 4.54102 21.7383 4.12109 21.3037 3.68652C20.8643 3.24707 20.4492 2.97852 19.8682 2.75391C19.4287 2.58301 18.7646 2.37793 17.5488 2.32422C16.2354 2.26562 15.8398 2.25098 12.5 2.25098ZM12.5 0C15.8936 0 16.3184 0.0146484 17.6514 0.0732422C18.9795 0.131836 19.8926 0.34668 20.6836 0.654297C21.5088 0.976562 22.207 1.40137 22.9004 2.09961C23.5986 2.79297 24.0234 3.49121 24.3457 4.31152C24.6533 5.10742 24.8682 6.01562 24.9268 7.34375C24.9854 8.68164 25 9.10645 25 12.5C25 15.8936 24.9854 16.3184 24.9268 17.6514C24.8682 18.9795 24.6533 19.8926 24.3457 20.6836C24.0234 21.5088 23.5986 22.207 22.9004 22.9004C22.207 23.5938 21.5088 24.0234 20.6885 24.3408C19.8926 24.6484 18.9844 24.8633 17.6562 24.9219C16.3232 24.9805 15.8984 24.9951 12.5049 24.9951C9.11133 24.9951 8.68652 24.9805 7.35352 24.9219C6.02539 24.8633 5.1123 24.6484 4.32129 24.3408C3.50097 24.0234 2.80273 23.5938 2.10938 22.9004C1.41602 22.207 0.986328 21.5088 0.668945 20.6885C0.361328 19.8926 0.146484 18.9844 0.0878906 17.6563C0.0292969 16.3232 0.0146484 15.8984 0.0146484 12.5049C0.0146484 9.11133 0.0292969 8.68652 0.0878906 7.35352C0.146484 6.02539 0.361328 5.11231 0.668945 4.32129C0.976562 3.49121 1.40137 2.79297 2.09961 2.09961C2.79297 1.40625 3.49121 0.976563 4.31152 0.65918C5.10742 0.351562 6.01562 0.136719 7.34375 0.078125C8.68164 0.0146484 9.10644 0 12.5 0Z" fill="#6668EA"/>
<path d="M12.5 6.0791C16.0449 6.0791 18.9209 8.95508 18.9209 12.5C18.9209 16.0449 16.0449 18.9209 12.5 18.9209C8.95508 18.9209 6.0791 16.0449 6.0791 12.5C6.0791 8.95508 8.95508 6.0791 12.5 6.0791ZM12.5 16.665C14.7998 16.665 16.665 14.7998 16.665 12.5C16.665 10.2002 14.7998 8.33496 12.5 8.33496C10.2002 8.33496 8.33496 10.2002 8.33496 12.5C8.33496 14.7998 10.2002 16.665 12.5 16.665Z" fill="#6668EA"/>
<path d="M4.32617 5.8252C4.32617 6.65528 5 7.32422 5.82519 7.32422C6.65527 7.32422 7.32422 6.65039 7.32422 5.8252C7.32422 4.99512 6.65039 4.32617 5.82519 4.32617C5 4.32617 4.32617 5 4.32617 5.8252Z" fill="#6668EA"/>
</g>
<defs>
<clipPath id="clip0_76_336">
<rect width="25" height="25" fill="white" transform="matrix(-1 0 0 1 25 0)"/>
</clipPath>
</defs>
</svg>
