<svg width="24" height="19" viewBox="0 0 24 19" fill="none" xmlns="http://www.w3.org/2000/svg">
<path fill-rule="evenodd" clip-rule="evenodd" d="M10.0001 3.99428L10.0001 3.98839L4.33939 3.98832L9.76934 2.02624L9.76876 2.02462C9.87275 1.9984 9.98036 1.98907 10.0875 1.99706C10.1016 1.99812 10.1157 1.99947 10.1298 2.00113L10.13 2.00115C10.2771 2.01848 10.4184 2.06826 10.5439 2.1469L10.5439 2.14691C10.6694 2.22555 10.7759 2.3311 10.8556 2.45591L10.8557 2.45611C10.9354 2.58093 10.9864 2.7219 11.0049 2.86883L11.005 2.86911C11.0235 3.0161 11.0092 3.16537 10.963 3.30614L10.963 3.30625C10.9168 3.44705 10.8398 3.57582 10.7378 3.68324L10.7377 3.68334C10.6356 3.79071 10.511 3.87407 10.3728 3.92738L10.3726 3.92748C10.3596 3.93249 10.3465 3.93722 10.3333 3.94167C10.226 3.97797 10.1133 3.99574 10.0001 3.99428ZM0 3.42949V5.98843L9.97957 5.98856C10.3586 5.99281 10.7355 5.92501 11.0903 5.78817L11.0905 5.78807C11.3605 5.68388 11.6132 5.54137 11.8412 5.36557C11.9625 5.27196 12.0768 5.1689 12.183 5.05716L12.1831 5.05706C12.4886 4.73546 12.7189 4.34996 12.8573 3.92844L12.8573 3.92833C12.9956 3.50682 13.0386 3.05982 12.9831 2.61966L12.9831 2.61938C12.9275 2.17921 12.7749 1.75689 12.5362 1.38294L12.5361 1.38274C12.2974 1.00875 11.9785 0.692513 11.6026 0.456899L11.6026 0.456888C11.472 0.37501 11.3356 0.30358 11.1947 0.24305C10.9302 0.129398 10.65 0.0541757 10.3625 0.0203787L10.3623 0.0203537C9.93403 -0.0299677 9.50007 0.0128829 9.09012 0.145796L9.08981 0.144944L9.05912 0.156031L9.05551 0.15725L9.05509 0.15739L9.05512 0.15748L0 3.42949ZM0 11.998V14.0524L13.2058 18.7505L13.2057 18.7509C13.6836 18.9416 14.1977 19.0245 14.7113 18.9937C14.9088 18.9819 15.1043 18.9533 15.2959 18.9087C15.6026 18.8372 15.8991 18.7244 16.1771 18.5727C16.6288 18.3263 17.0206 17.9832 17.3246 17.5679C17.6286 17.1527 17.8372 16.6754 17.9357 16.1703C18.0342 15.6651 18.0201 15.1444 17.8943 14.6453C17.7686 14.1462 17.5344 13.681 17.2083 13.2829C17.0076 13.0378 16.7752 12.8218 16.5178 12.6403C16.357 12.5269 16.1866 12.427 16.008 12.3418C15.5443 12.1206 15.0376 12.0042 14.5239 12.001V11.998L0 11.998ZM14.5103 13.9982L5.8151 13.9981L13.9842 16.9044L13.9835 16.9065C14.1776 16.9781 14.3847 17.0088 14.5916 16.9964C14.8115 16.9832 15.0258 16.9216 15.2193 16.8161C15.4127 16.7105 15.5805 16.5636 15.7106 16.3858C15.8408 16.208 15.9302 16.0036 15.9723 15.7873C16.0145 15.571 16.0085 15.348 15.9546 15.1343C15.9008 14.9205 15.8005 14.7213 15.6608 14.5508C15.5212 14.3803 15.3457 14.2427 15.1468 14.1479C14.9483 14.0531 14.7312 14.0033 14.5112 14.0019L14.5103 14.0019L14.5103 14.0015L14.5103 13.9982ZM19.018 4.24803L19.0172 4.24852L18.0336 2.50707L18.0325 2.50506L18.0345 2.50395C18.567 2.20341 19.1613 2.02898 19.7718 1.99408C19.8603 1.98902 19.9489 1.98691 20.0373 1.98774C20.559 1.9926 21.0757 2.09955 21.5579 2.30351C22.1218 2.54202 22.6234 2.90682 23.0241 3.3698C23.4248 3.83278 23.7139 4.38159 23.8692 4.97396C24.0245 5.56632 24.0417 6.18643 23.9197 6.78652C23.7976 7.38662 23.5395 7.95067 23.1651 8.43525C22.8451 8.84958 22.4474 9.19635 21.9952 9.45667C21.9185 9.5008 21.8403 9.54245 21.7606 9.58152C21.2108 9.85106 20.6066 9.99078 19.9944 9.98993V9.98963H0V7.98963H19.9972L19.9972 7.98747C20.303 7.9879 20.6049 7.9181 20.8795 7.78346C21.1541 7.64882 21.3941 7.45292 21.5811 7.21086C21.7681 6.9688 21.897 6.68703 21.958 6.38726C22.019 6.0875 22.0104 5.77773 21.9328 5.48182C21.8552 5.18592 21.7108 4.91177 21.5106 4.68049C21.3105 4.44922 21.0599 4.26699 20.7782 4.14784C20.4966 4.0287 20.1913 3.97582 19.886 3.99327C19.581 4.01071 19.2841 4.09786 19.018 4.24803Z" fill="white"/>
</svg>
